<svg xmlns="http://www.w3.org/2000/svg" xmlns:xlink="http://www.w3.org/1999/xlink" version="1.1" id="Layer_1" x="0px" y="0px" viewBox="0 0 199.1 197.2" enable-background="new 0 0 199.1 197.2" xml:space="preserve"><g><path fill="#E2DCCB" d="M83 105.8c-0.5 2.1-1.2 4.1-2.1 6.1c-0.9 2-2.1 4-3.4 5.9c-1.3 1.8-2.8 3.6-4.5 5.1c-1.6 1.6-3.5 3-5.4 4.3 c-1.9 1.3-4 2.3-6.1 3.2c-2.1 0.9-4.4 1.6-6.6 2c-2.3 0.5-4.6 0.7-6.9 0.7c-4.5 0-8.8-0.9-12.8-2.7c-3.8-1.7-7.2-4.1-10.1-7.3 c-1.4-1.5-2.7-3.3-3.8-5.1c-1.1-1.8-2.1-3.8-2.9-5.9c-1.6-4.3-2.5-8.9-2.5-13.6c0-4.8 0.8-9.4 2.5-13.6c0.8-2.1 1.8-4 2.9-5.9 c1.1-1.8 2.4-3.5 3.8-5.1c2.9-3.1 6.3-5.6 10.1-7.3c4-1.8 8.3-2.7 12.8-2.7c2.3 0 4.6 0.2 6.9 0.7c2.2 0.5 4.5 1.1 6.6 2 c2.1 0.9 4.2 2 6.1 3.2c1.9 1.3 3.7 2.7 5.4 4.3c1.7 1.6 3.2 3.3 4.5 5.1c1.3 1.9 2.5 3.8 3.4 5.9c0.9 2 1.6 4.1 2.1 6.1l9.4-9.4 c-0.2-0.5-0.4-1.1-0.7-1.6c-1.2-2.7-2.8-5.4-4.5-7.9c-1.7-2.4-3.7-4.7-5.9-6.8c-2.2-2.1-4.6-4-7.1-5.6c-2.5-1.7-5.2-3.1-8-4.2 c-2.8-1.2-5.8-2.1-8.8-2.7c-3.1-0.6-6.2-0.9-9.3-0.9c-12.2 0-23.5 4.9-31.7 13.8c-1.9 2.1-3.7 4.4-5.2 6.9 c-1.5 2.5-2.8 5.1-3.9 7.9c-1.1 2.8-1.9 5.7-2.4 8.7c-0.6 3-0.8 6.1-0.8 9.2s0.3 6.2 0.8 9.2c0.5 3 1.4 5.9 2.4 8.7 c1.1 2.8 2.4 5.4 3.9 7.9c1.5 2.5 3.3 4.8 5.2 6.9c8.2 8.9 19.5 13.8 31.7 13.8c3.1 0 6.2-0.3 9.3-0.9c3-0.6 5.9-1.5 8.8-2.7 c2.8-1.2 5.5-2.6 8-4.2c2.5-1.7 4.9-3.5 7.1-5.6c2.2-2.1 4.2-4.4 5.9-6.8c1.8-2.5 3.3-5.1 4.5-7.9c0.2-0.5 0.5-1 0.7-1.6h-0.2 L83 106V105.8z"/></g><g><path fill="#702F8A" d="M145.1 140.8c-0.6-3-1.5-5.9-2.7-8.8c-1.2-2.8-2.6-5.5-4.2-8c-1.7-2.5-3.5-4.9-5.6-7.1 c-2.1-2.2-4.4-4.2-6.8-5.9c-2.5-1.8-5.1-3.3-7.9-4.5c-0.5-0.2-1-0.5-1.6-0.7v0.2l-9.3 9.3h-0.2c2.1 0.5 4.1 1.2 6.1 2.1 c2 0.9 4 2.1 5.9 3.4c1.8 1.3 3.6 2.8 5.1 4.5c1.6 1.6 3 3.5 4.3 5.4c1.3 1.9 2.3 4 3.2 6.1c0.9 2.1 1.6 4.4 2 6.6 c0.5 2.3 0.7 4.6 0.7 6.9c0 4.5-0.9 8.8-2.7 12.8c-1.7 3.8-4.1 7.2-7.3 10.1c-1.5 1.4-3.3 2.7-5.1 3.8c-1.8 1.1-3.8 2.1-5.9 2.9 c-4.3 1.6-8.9 2.5-13.6 2.5c-4.8 0-9.4-0.8-13.6-2.5c-2.1-0.8-4-1.8-5.9-2.9c-1.8-1.1-3.5-2.4-5.1-3.8c-3.1-2.9-5.6-6.3-7.3-10.1 c-1.8-4-2.7-8.3-2.7-12.8c0-2.3 0.2-4.6 0.7-6.9c0.5-2.2 1.1-4.5 2-6.6c0.9-2.1 2-4.2 3.2-6.1c1.3-1.9 2.7-3.7 4.3-5.4 c1.6-1.7 3.3-3.2 5.1-4.5c1.9-1.3 3.8-2.5 5.9-3.4c2-0.9 4.1-1.6 6.1-2.1l-9.4-9.4c-0.5 0.2-1.1 0.4-1.6 0.7 c-2.7 1.2-5.4 2.8-7.9 4.5c-2.4 1.7-4.7 3.7-6.8 5.9c-2.1 2.2-4 4.6-5.6 7.1c-1.7 2.5-3.1 5.2-4.2 8c-1.2 2.8-2.1 5.8-2.7 8.8 c-0.6 3.1-0.9 6.2-0.9 9.3c0 12.2 4.9 23.5 13.8 31.7c2.1 1.9 4.4 3.7 6.9 5.2c2.5 1.5 5.1 2.8 7.9 3.9c2.8 1.1 5.7 1.9 8.7 2.4 c3 0.6 6.1 0.8 9.2 0.8s6.2-0.3 9.2-0.8c3-0.5 5.9-1.4 8.7-2.4c2.8-1.1 5.4-2.4 7.9-3.9c2.5-1.5 4.8-3.3 6.9-5.2 c8.9-8.2 13.8-19.5 13.8-31.7C146 147 145.7 143.9 145.1 140.8z"/></g><g><path fill="#E2DCCB" d="M194.3 89.4c-0.5-3-1.4-5.9-2.4-8.7c-1.1-2.8-2.4-5.4-3.9-7.9c-1.5-2.5-3.3-4.8-5.2-6.9 c-8.2-8.9-19.5-13.8-31.7-13.8c-3.1 0-6.2 0.3-9.3 0.9c-3 0.6-5.9 1.5-8.8 2.7c-2.8 1.2-5.5 2.6-8 4.2c-2.5 1.7-4.9 3.5-7.1 5.6 c-2.2 2.1-4.2 4.4-5.9 6.8c-1.8 2.5-3.3 5.1-4.5 7.9c-0.2 0.5-0.5 1-0.7 1.6h0.2l9.3 9.3v0.2c0.5-2.1 1.2-4.1 2.1-6.1 c0.9-2 2.1-4 3.4-5.9c1.3-1.8 2.8-3.6 4.5-5.1c1.6-1.6 3.5-3 5.4-4.3c1.9-1.3 4-2.3 6.1-3.2c2.1-0.9 4.4-1.6 6.6-2 c2.3-0.5 4.6-0.7 6.9-0.7c4.5 0 8.8 0.9 12.8 2.7c3.8 1.7 7.2 4.1 10.1 7.3c1.4 1.5 2.7 3.3 3.8 5.1c1.1 1.8 2.1 3.8 2.9 5.9 c1.6 4.3 2.5 8.9 2.5 13.6c0 4.8-0.8 9.4-2.5 13.6c-0.8 2.1-1.8 4-2.9 5.9c-1.1 1.8-2.4 3.5-3.8 5.1c-2.9 3.1-6.3 5.6-10.1 7.3 c-4 1.8-8.3 2.7-12.8 2.7c-2.3 0-4.6-0.2-6.9-0.7c-2.2-0.5-4.5-1.1-6.6-2c-2.1-0.9-4.2-2-6.1-3.2c-1.9-1.3-3.7-2.7-5.4-4.3 c-1.7-1.6-3.2-3.3-4.5-5.1c-1.3-1.9-2.5-3.8-3.4-5.9c-0.9-2-1.6-4.1-2.1-6.1l-9.4 9.4c0.2 0.5 0.4 1.1 0.7 1.6 c1.2 2.7 2.8 5.4 4.5 7.9c1.7 2.4 3.7 4.7 5.9 6.8c2.2 2.1 4.6 4 7.1 5.6c2.5 1.7 5.2 3.1 8 4.2c2.8 1.2 5.8 2.1 8.8 2.7 c3.1 0.6 6.2 0.9 9.3 0.9c12.2 0 23.5-4.9 31.7-13.8c1.9-2.1 3.7-4.4 5.2-6.9c1.5-2.5 2.8-5.1 3.9-7.9c1.1-2.8 1.9-5.7 2.4-8.7 c0.6-3 0.8-6.1 0.8-9.2S194.9 92.4 194.3 89.4z"/></g><g><path fill="#702F8A" d="M77.5 79.4c-1.3-1.8-2.8-3.6-4.5-5.1c-1.6-1.6-3.5-3-5.4-4.3c-1.9-1.3-4-2.3-6.1-3.2 c-1.6-0.7-3.2-1.2-4.8-1.6c0 0 0 0 0 0c1.2 2.8 2.6 5.5 4.2 8c1.7 2.5 3.5 4.9 5.6 7.1c2.1 2.2 4.4 4.2 6.8 5.9 c2.5 1.8 5.1 3.3 7.9 4.5c0.5 0.2 1 0.5 1.6 0.7c-0.5-2.1-1.2-4.1-2.1-6.1C80 83.3 78.9 81.3 77.5 79.4z"/><path fill="#702F8A" d="M161.8 11.3h-0.9c-4.5 0.4-9.1 1.6-12.9 3c-3.3 1.3-6.1 2.8-9.5 5.2c-0.5 0.3-1.1 0.6-1.6 0.5 c-0.4-0.1-0.8-0.5-1.2-1c-1.1-1.2-2.2-2.4-3.4-3.5c-2.1-1.9-4.4-3.7-6.9-5.2c-2.5-1.5-5.1-2.8-7.9-3.9c-2.8-1.1-5.7-1.9-8.7-2.4 c-3-0.6-6.1-0.8-9.2-0.8s-6.2 0.3-9.2 0.8c-3 0.5-5.9 1.4-8.7 2.4c-2.8 1.1-5.4 2.4-7.9 3.9c-2.5 1.5-4.8 3.3-6.9 5.2 c-8.9 8.2-13.8 19.5-13.8 31.7c0 1.8 0.1 3.6 0.3 5.4c1.3 0.2 2.6 0.4 3.9 0.6c3 0.6 5.9 1.5 8.8 2.7c-0.2-0.6-0.3-1.2-0.4-1.8 c-0.5-2.3-0.7-4.6-0.7-6.9c0-4.5 0.9-8.8 2.7-12.8c1.7-3.8 4.1-7.2 7.3-10.1c1.5-1.4 3.3-2.7 5.1-3.8c1.8-1.1 3.8-2.1 5.9-2.9 c4.3-1.6 8.9-2.5 13.6-2.5c4.8 0 9.4 0.8 13.6 2.5c2.1 0.8 4 1.8 5.9 2.9c1.8 1.1 3.5 2.4 5.1 3.8c3.1 2.9 5.6 6.3 7.3 10.1 c1.8 4 2.7 8.3 2.7 12.8c0 2.3-0.2 4.6-0.7 6.9c-0.5 2.2-1.1 4.5-2 6.6c-0.9 2.1-2 4.2-3.2 6.1c-1.3 1.9-2.7 3.7-4.3 5.4 c-1.6 1.7-3.3 3.2-5.1 4.5c-1.9 1.3-3.8 2.5-5.9 3.4c-2 0.9-4.1 1.6-6.1 2.1l9.4 9.4c0.5-0.2 1.1-0.4 1.6-0.7 c2.7-1.2 5.4-2.8 7.9-4.5c2.4-1.7 4.7-3.7 6.8-5.9c2.1-2.2 4-4.6 5.6-7.1c1.7-2.5 3.1-5.2 4.2-8c1.2-2.8 2.1-5.8 2.7-8.8 c0.6-3.1 0.9-6.2 0.9-9.3c0-4.4-0.6-8.7-1.9-12.8l0 0l0 0c-0.5-1.6-0.9-2.8-1.3-3.5c-0.4-0.8 0.2-1.5 1.5-2.1 c1.2-0.6 3.4-1.4 7.1-2.2c3.7-0.8 7-1.2 9.9-1.2h0.9c1.2 0 1.7-0.8 1.7-2.3v-8.8C163.9 12.3 163.2 11.3 161.8 11.3z"/></g></svg>